<svg fill="none" width="129" height="25" viewBox="367 140 129 25" xmlns="http://www.w3.org/2000/svg">
<g>
    <path d="M379.446 155.274C379.327 156.74 378.719 157.894 377.622 158.737C376.531 159.579 375.091 160 373.302 160C371.344 160 369.803 159.414 368.678 158.241C367.559 157.061 367 155.446 367 153.393V152.56C367 151.25 367.259 150.096 367.776 149.098C368.293 148.099 369.031 147.335 369.988 146.805C370.953 146.268 372.071 146 373.344 146C375.105 146 376.524 146.421 377.601 147.263C378.677 148.106 379.299 149.288 379.467 150.81H376.322C376.245 149.93 375.969 149.294 375.493 148.901C375.025 148.502 374.308 148.302 373.344 148.302C372.295 148.302 371.509 148.639 370.984 149.313C370.467 149.98 370.202 151.019 370.188 152.429V153.459C370.188 154.931 370.436 156.007 370.932 156.687C371.435 157.367 372.225 157.707 373.302 157.707C374.273 157.707 374.997 157.511 375.472 157.118C375.955 156.718 376.231 156.104 376.301 155.274H379.446Z" fill="white"/>
    <path d="M400.38 157.557H407.059V159.813H397.234V146.187H400.38V157.557Z" fill="white"/>
    <path d="M466.028 146.187V155.162C466.028 156.653 465.504 157.832 464.455 158.699C463.414 159.566 461.988 160 460.177 160C458.395 160 456.979 159.579 455.93 158.737C454.882 157.894 454.347 156.737 454.326 155.265V146.187H457.472V155.18C457.472 156.073 457.709 156.725 458.185 157.136C458.667 157.542 459.331 157.745 460.177 157.745C461.946 157.745 462.844 156.915 462.872 155.255V146.187H466.028Z" fill="white"/>
    <path d="M484.33 159.813V146.187H489.027C490.369 146.187 491.568 146.459 492.624 147.001C493.686 147.538 494.515 148.305 495.109 149.303C495.703 150.295 496 151.425 496 152.691V153.318C496 154.585 495.706 155.711 495.119 156.697C494.539 157.682 493.718 158.447 492.655 158.989C491.593 159.532 490.394 159.807 489.059 159.813H484.33ZM487.475 148.461V157.557H488.996C490.226 157.557 491.166 157.199 491.816 156.481C492.466 155.764 492.798 154.738 492.812 153.402V152.682C492.812 151.297 492.491 150.249 491.848 149.537C491.205 148.82 490.264 148.461 489.027 148.461H487.475Z" fill="white"/>
    <path d="M430.484 165C423.547 164.968 417.995 159.385 418 152.492C418.005 145.557 423.611 140.005 430.494 140C437.473 139.995 443.084 145.7 442.999 152.661C442.92 159.369 437.462 164.989 430.484 165ZM439.724 152.46C439.729 151.379 439.539 150.328 439.164 149.32C438.598 147.795 437.706 146.486 436.453 145.436C434.398 143.71 432.021 142.998 429.364 143.299C427.335 143.531 425.571 144.38 424.091 145.795C422.543 147.283 421.619 149.093 421.318 151.22C421.18 152.191 421.196 153.168 421.381 154.133C421.761 156.134 422.697 157.833 424.181 159.226C425.153 160.139 426.273 160.799 427.536 161.232C428.45 161.543 429.39 161.707 430.352 161.707C430.896 161.707 431.456 161.675 431.979 161.554C432.808 161.353 433.273 160.488 433.083 159.627C432.909 158.83 432.1 158.276 431.287 158.382C430.336 158.509 429.395 158.435 428.497 158.097C426.469 157.332 425.153 155.901 424.662 153.78C424.271 152.091 424.588 150.513 425.571 149.088C427.303 146.581 430.632 145.795 433.305 147.246C435.45 148.413 436.665 150.735 436.39 153.162C436.29 154.07 436.929 154.899 437.811 154.994C438.741 155.094 439.56 154.44 439.65 153.511C439.687 153.157 439.702 152.809 439.724 152.46ZM432.872 153.236C432.74 153.252 432.602 153.247 432.481 153.278C431.229 153.627 430.832 155.126 431.746 156.049C432.983 157.295 434.224 158.535 435.471 159.77C436.136 160.435 437.14 160.43 437.795 159.78C438.44 159.142 438.445 158.123 437.801 157.469C436.549 156.208 435.291 154.957 434.034 153.706C433.712 153.389 433.326 153.226 432.872 153.236Z" fill="url(#paint0_linear)"/>
</g>
<defs>
<linearGradient id="paint0_linear" x1="443" y1="158.5" x2="418" y2="140" gradientUnits="userSpaceOnUse">
<stop offset="0.411864" stop-color="#8743FF"/>
<stop offset="0.970537" stop-color="#4136F1"/>
</linearGradient>
</defs>
</svg>
