<svg fill="none" width="100" height="100" viewBox="418 140 25 25" xmlns="http://www.w3.org/2000/svg">
<g>
    <path d="M430.484 165C423.547 164.968 417.995 159.385 418 152.492C418.005 145.557 423.611 140.005 430.494 140C437.473 139.995 443.084 145.7 442.999 152.661C442.92 159.369 437.462 164.989 430.484 165ZM439.724 152.46C439.729 151.379 439.539 150.328 439.164 149.32C438.598 147.795 437.706 146.486 436.453 145.436C434.398 143.71 432.021 142.998 429.364 143.299C427.335 143.531 425.571 144.38 424.091 145.795C422.543 147.283 421.619 149.093 421.318 151.22C421.18 152.191 421.196 153.168 421.381 154.133C421.761 156.134 422.697 157.833 424.181 159.226C425.153 160.139 426.273 160.799 427.536 161.232C428.45 161.543 429.39 161.707 430.352 161.707C430.896 161.707 431.456 161.675 431.979 161.554C432.808 161.353 433.273 160.488 433.083 159.627C432.909 158.83 432.1 158.276 431.287 158.382C430.336 158.509 429.395 158.435 428.497 158.097C426.469 157.332 425.153 155.901 424.662 153.78C424.271 152.091 424.588 150.513 425.571 149.088C427.303 146.581 430.632 145.795 433.305 147.246C435.45 148.413 436.665 150.735 436.39 153.162C436.29 154.07 436.929 154.899 437.811 154.994C438.741 155.094 439.56 154.44 439.65 153.511C439.687 153.157 439.702 152.809 439.724 152.46ZM432.872 153.236C432.74 153.252 432.602 153.247 432.481 153.278C431.229 153.627 430.832 155.126 431.746 156.049C432.983 157.295 434.224 158.535 435.471 159.77C436.136 160.435 437.14 160.43 437.795 159.78C438.44 159.142 438.445 158.123 437.801 157.469C436.549 156.208 435.291 154.957 434.034 153.706C433.712 153.389 433.326 153.226 432.872 153.236Z" fill="url(#paint0_linear)"/>
</g>
<defs>
<linearGradient id="paint0_linear" x1="443" y1="158.5" x2="418" y2="140" gradientUnits="userSpaceOnUse">
<stop offset="0.411864" stop-color="#8743FF"/>
<stop offset="0.970537" stop-color="#4136F1"/>
</linearGradient>
</defs>
</svg>
