<svg width="49" height="49" viewBox="0 0 49 49" fill="none" xmlns="http://www.w3.org/2000/svg">
<path d="M24.468 49C10.8724 48.9379 -0.0103473 37.9939 7.38299e-06 24.4845C0.010362 10.8923 10.9966 0.0103513 24.4887 7.17099e-06C38.1672 -0.0103369 49.1638 11.1716 48.9982 24.8155C48.8428 37.9628 38.1465 48.9793 24.468 49ZM42.5783 24.4224C42.5886 22.3019 42.2159 20.2434 41.4807 18.2677C40.3727 15.2782 38.6228 12.7129 36.1688 10.6544C32.1408 7.27191 27.4812 5.87545 22.2728 6.46507C18.2967 6.92021 14.8382 8.58561 11.9389 11.3578C8.905 14.2749 7.09293 17.8229 6.50272 21.9916C6.2335 23.8949 6.26456 25.8085 6.62698 27.7015C7.37251 31.6219 9.20528 34.9527 12.1149 37.6836C14.0202 39.4731 16.2154 40.7661 18.6901 41.6143C20.4815 42.2246 22.3246 42.5453 24.2092 42.5453C25.2757 42.5453 26.3733 42.4832 27.3984 42.2453C29.0241 41.8522 29.9353 40.1558 29.5625 38.4697C29.2208 36.9077 27.6365 35.8216 26.0419 36.0285C24.1781 36.2768 22.335 36.1319 20.5747 35.4699C16.5985 33.97 14.0202 31.1668 13.0572 27.0084C12.291 23.6983 12.9122 20.6055 14.8382 17.8125C18.2345 12.8991 24.7579 11.3578 29.9974 14.2025C34.2014 16.4885 36.5829 21.0399 36.0445 25.7982C35.8478 27.5774 37.1007 29.2014 38.8299 29.3876C40.6523 29.5841 42.2573 28.3015 42.4333 26.4809C42.5058 25.7878 42.5369 25.1051 42.5783 24.4224ZM29.1483 25.943C28.8894 25.974 28.6202 25.9637 28.3821 26.0258C25.928 26.7085 25.1514 29.6462 26.9428 31.4564C29.3658 33.8976 31.7991 36.3285 34.2428 38.749C35.5475 40.0524 37.5149 40.042 38.7988 38.7697C40.0621 37.518 40.0725 35.5216 38.8092 34.239C36.3551 31.7667 33.8907 29.3152 31.4263 26.8636C30.7947 26.243 30.0388 25.9223 29.1483 25.943Z" fill="url(#paint0_linear)"/>
<defs>
<linearGradient id="paint0_linear" x1="-1.62153e-06" y1="-12.74" x2="36.26" y2="49" gradientUnits="userSpaceOnUse">
<stop stop-color="#C7C7C7"/>
<stop offset="0.316723" stop-color="#A1A1A1"/>
<stop offset="0.575122" stop-color="#7A7A7A"/>
<stop offset="0.922708" stop-color="#3B3B3B"/>
</linearGradient>
</defs>
</svg>
