<svg width="226" height="18" viewBox="0 0 226 18" fill="none" xmlns="http://www.w3.org/2000/svg">
<g clip-path="url(#clip0)">
<path d="M7.47283 15.3927C7.24008 15.2327 6.98554 15.0873 6.70919 14.9564C6.44737 14.84 6.09828 14.7455 5.66192 14.6727C3.87283 14.5418 2.49827 13.8509 1.53827 12.6C0.578266 11.3491 0.0982666 9.66182 0.0982666 7.53818C0.0982666 6.17092 0.389176 4.91274 0.970993 3.76363C1.56736 2.61455 2.39645 1.70547 3.45828 1.03637C4.53463 0.352735 5.77101 0.0109177 7.16737 0.0109177C9.17464 0.0109177 10.731 0.636372 11.8365 1.88728C12.9564 3.12365 13.5165 4.83272 13.5165 7.01454C13.5165 8.62909 13.1456 10.1273 12.4037 11.5091C11.6765 12.8909 10.5201 13.8364 8.93464 14.3455L12.1637 16.2655H14.4546V17.1382C14.3964 17.1818 14.2437 17.2618 13.9965 17.3782C13.7637 17.4946 13.4728 17.6109 13.1237 17.7273C12.7892 17.8436 12.4619 17.9018 12.1419 17.9018C11.5164 17.9018 10.9419 17.7346 10.4183 17.4L7.47283 15.3927ZM7.18919 13.3418C8.46918 13.3418 9.40736 12.8546 10.0037 11.88C10.6001 10.8909 10.8983 9.39272 10.8983 7.38545C10.8983 5.85818 10.731 4.66546 10.3964 3.80727C10.0764 2.93454 9.61826 2.33092 9.02192 1.99637C8.44008 1.64728 7.71283 1.47274 6.8401 1.47274C5.93827 1.47274 5.19645 1.61819 4.61464 1.9091C4.03281 2.18546 3.56737 2.75274 3.21828 3.61091C2.88373 4.45456 2.71645 5.68363 2.71645 7.29818C2.71645 9.36365 3.09463 10.8909 3.85101 11.88C4.60736 12.8546 5.72009 13.3418 7.18919 13.3418Z" fill="white"/>
<path d="M14.9441 1.36365V0.316376H20.7259V1.36365L18.9805 1.71274V8.38909C18.9805 9.69818 19.0823 10.6946 19.2859 11.3782C19.5041 12.0473 19.8677 12.52 20.3768 12.7964C20.8859 13.0582 21.635 13.1891 22.6241 13.1891C23.4677 13.1891 24.1295 13.0218 24.6095 12.6873C25.0895 12.3527 25.4241 11.8436 25.6132 11.16C25.8168 10.4618 25.9186 9.5382 25.9186 8.38909V1.73456L24.1514 1.38547V0.316376H29.3442V1.38547L27.5769 1.73456V8.38909C27.5769 9.88729 27.4168 11.0945 27.0968 12.0109C26.7768 12.9273 26.2096 13.6182 25.395 14.0836C24.595 14.5491 23.475 14.7818 22.035 14.7818C20.6386 14.7818 19.555 14.5564 18.7841 14.1055C18.0277 13.6546 17.4968 12.9709 17.1914 12.0545C16.8859 11.1382 16.7332 9.91637 16.7332 8.38909V1.71274L14.9441 1.36365Z" fill="white"/>
<path d="M29.5181 13.4291L30.9144 13.1018L35.6053 0.185463H37.1326L42.0635 13.1018L43.5035 13.4291V14.4545H37.8308V13.4291L39.4453 13.1018L39.3799 12.6655L38.5508 10.44H33.5544L32.769 12.6873L32.7253 13.1018L34.4272 13.4291V14.4545H29.5181V13.4291ZM38.0926 9.04363L36.1508 3.72L36.0635 3.39272L35.9981 3.32727L35.889 3.76363L34.0344 9.04363H38.0926Z" fill="white"/>
<path d="M48.7633 14.7164C47.847 14.7164 46.9816 14.6 46.167 14.3673C45.3523 14.12 44.7706 13.8509 44.4215 13.56V10.2218H45.7088L46.0797 12.4255C46.3851 12.6727 46.7852 12.8836 47.2797 13.0582C47.7741 13.2182 48.2323 13.2982 48.6542 13.2982C49.6871 13.2982 50.4289 13.1164 50.8797 12.7527C51.3305 12.3891 51.5561 11.8 51.5561 10.9855C51.5561 10.52 51.447 10.1345 51.2288 9.82909C51.0106 9.52363 50.7125 9.2691 50.3342 9.06545C49.956 8.84727 49.4034 8.59273 48.6761 8.30182C47.6724 7.92365 46.9161 7.61092 46.407 7.36363C45.8978 7.10182 45.4396 6.70909 45.0324 6.18545C44.6397 5.64728 44.4433 4.94182 44.4433 4.06909C44.4433 2.84727 44.8723 1.86546 45.7306 1.12365C46.6033 0.381827 47.7741 0.0109177 49.2433 0.0109177C49.9415 0.0109177 50.676 0.0690996 51.447 0.185463C52.218 0.301828 52.7634 0.425463 53.0833 0.556372V4.06909H51.8833L51.4688 1.93092C51.4396 1.91637 51.2288 1.83637 50.8361 1.69092C50.4578 1.54546 49.9197 1.47274 49.2215 1.47274C48.2471 1.47274 47.5707 1.64728 47.1924 1.99637C46.8141 2.33092 46.6251 2.8182 46.6251 3.45818C46.6251 3.95274 46.7634 4.36001 47.0397 4.68C47.3307 5.00002 47.658 5.24727 48.0215 5.42182C48.3998 5.58183 49.0107 5.82183 49.8542 6.14182C50.6689 6.46183 51.3379 6.78183 51.8615 7.10182C52.3996 7.42183 52.836 7.85092 53.1706 8.38909C53.5197 8.91273 53.6942 9.57455 53.6942 10.3745C53.6942 11.3927 53.4542 12.2291 52.9742 12.8836C52.4942 13.5236 51.8833 13.9891 51.1415 14.28C50.3997 14.5709 49.6069 14.7164 48.7633 14.7164Z" fill="white"/>
<path d="M54.3407 13.4291L55.7371 13.1018L60.428 0.185463H61.9552L66.8862 13.1018L68.3262 13.4291V14.4545H62.6534V13.4291L64.268 13.1018L64.2025 12.6655L63.3734 10.44H58.3771L57.5916 12.6873L57.548 13.1018L59.2498 13.4291V14.4545H54.3407V13.4291ZM62.9152 9.04363L60.9734 3.72L60.8862 3.39272L60.8207 3.32727L60.7116 3.76363L58.8571 9.04363H62.9152Z" fill="white"/>
<path d="M69.1787 13.4291L70.9678 13.0364V1.71274L69.1787 1.34183V0.316376H75.3533C76.8077 0.316376 77.9496 0.607286 78.7787 1.1891C79.6078 1.77092 80.0224 2.69456 80.0224 3.96C80.0224 5.09455 79.7458 5.97456 79.1933 6.6C78.6549 7.21091 77.9278 7.71273 77.0114 8.10545L79.9569 13.0364L81.4842 13.4291V14.4545H78.9096C78.3423 14.4545 77.9349 14.2291 77.6878 13.7782L74.8078 8.56364H73.2151V13.0364L75.0042 13.4291V14.4545H69.1787V13.4291ZM74.3714 7.21091C75.3459 7.21091 76.124 6.94184 76.706 6.40364C77.3022 5.86546 77.6005 5.13818 77.6005 4.22182C77.6005 3.24728 77.3458 2.58547 76.8369 2.23638C76.3277 1.87274 75.644 1.69092 74.786 1.69092C74.2913 1.69092 73.7676 1.72001 73.2151 1.77819V7.21091H74.3714Z" fill="white"/>
<path d="M88.8497 13.4073L90.617 13.0582V1.69092H87.7152L87.2133 4.04727H86.0352V0.316376H97.4679V4.04727H96.2679L95.7879 1.69092H92.8861V13.0582L94.6533 13.4073V14.4545H88.8497V13.4073Z" fill="white"/>
<path d="M100.563 13.0364V1.71274L98.7736 1.34183V0.316376H109.028V4.04727H107.828L107.348 1.64728H104.599L102.81 1.80001V6.6H105.886L106.257 5.24727H107.239V9.30545H106.257L105.886 7.88727H102.81V12.9273C103.377 13.0291 104.025 13.08 104.752 13.08H107.523L108.046 10.6582H109.224V14.4545H98.7736V13.4291L100.563 13.0364Z" fill="white"/>
<path d="M122.472 10.2873V13.7782C121.818 14.0546 121.134 14.28 120.422 14.4545C119.723 14.6437 118.8 14.7382 117.651 14.7382C115.483 14.7382 113.862 14.1273 112.785 12.9055C111.709 11.6836 111.171 9.90182 111.171 7.56C111.171 6.19273 111.454 4.93456 112.022 3.78545C112.589 2.62183 113.389 1.70547 114.422 1.03637C115.469 0.352735 116.669 0.0109177 118.022 0.0109177C118.923 0.0109177 119.745 0.0690996 120.487 0.185463C121.243 0.301828 121.876 0.454555 122.385 0.643645V4.22182H121.142L120.683 1.84364C119.811 1.59637 118.894 1.47274 117.934 1.47274C116.916 1.47274 116.102 1.67637 115.491 2.08365C114.894 2.49092 114.458 3.13091 114.182 4.00363C113.92 4.87636 113.789 6.04001 113.789 7.49454C113.789 9.41454 114.145 10.8691 114.858 11.8582C115.585 12.8473 116.633 13.3418 118 13.3418C119.076 13.3418 119.803 13.2255 120.182 12.9927C120.56 12.76 120.756 12.6364 120.771 12.6218L121.229 10.2873H122.472Z" fill="white"/>
<path d="M124.64 13.4073L126.429 13.0582V1.71274L124.64 1.36365V0.316376H130.466V1.36365L128.677 1.71274V6.51273H134.96V1.71274L133.171 1.36365V0.316376H138.997V1.36365L137.208 1.71274V13.0582L138.997 13.4073V14.4545H133.171V13.4073L134.96 13.0582V7.86546H128.677V13.0582L130.466 13.4073V14.4545H124.64V13.4073Z" fill="white"/>
<path d="M141.132 14.4545V13.4509L142.724 13.08V1.69092L141.306 1.38547V0.316376H145.015L151.539 10.6582L151.779 11.0509H151.932V1.69092L150.361 1.32001V0.316376H155.095V1.32001L153.503 1.69092V14.4545H151.299L144.666 4.02546L144.448 3.65455H144.295V13.08L145.888 13.4509V14.4545H141.132Z" fill="white"/>
<path d="M163.42 14.7818C161.296 14.7818 159.667 14.1564 158.533 12.9055C157.412 11.6546 156.853 9.89454 156.853 7.62545C156.853 6.18545 157.129 4.89093 157.682 3.74182C158.249 2.57819 159.064 1.6691 160.125 1.01455C161.202 0.345464 162.467 0.0109177 163.922 0.0109177C165.929 0.0109177 167.485 0.643645 168.591 1.9091C169.711 3.16001 170.271 4.89093 170.271 7.10182C170.271 8.58545 170.016 9.90911 169.507 11.0727C169.013 12.2218 168.249 13.1309 167.216 13.8C166.198 14.4545 164.933 14.7818 163.42 14.7818ZM163.856 13.3636C165.18 13.3636 166.14 12.8909 166.736 11.9455C167.347 10.9855 167.653 9.52363 167.653 7.56C167.653 5.98909 167.492 4.76002 167.173 3.87273C166.853 2.97093 166.394 2.34546 165.798 1.99637C165.216 1.64728 164.482 1.47274 163.594 1.47274C162.692 1.47274 161.951 1.61819 161.369 1.9091C160.787 2.20001 160.322 2.77456 159.973 3.63273C159.638 4.47638 159.471 5.72002 159.471 7.36363C159.471 9.50182 159.827 11.0364 160.54 11.9673C161.267 12.8982 162.373 13.3636 163.856 13.3636Z" fill="white"/>
<path d="M172.261 13.4291L174.05 13.0364V1.71274L172.261 1.34183V0.316376H178.218V1.40728L176.297 1.75638V12.9491L178.13 13.1236H180.617L181.141 10.7455H182.319V14.4545H172.261V13.4291Z" fill="white"/>
<path d="M190.096 14.7818C187.972 14.7818 186.343 14.1564 185.209 12.9055C184.089 11.6546 183.529 9.89454 183.529 7.62545C183.529 6.18545 183.805 4.89093 184.358 3.74182C184.925 2.57819 185.74 1.6691 186.801 1.01455C187.878 0.345464 189.143 0.0109177 190.598 0.0109177C192.605 0.0109177 194.161 0.643645 195.267 1.9091C196.387 3.16001 196.947 4.89093 196.947 7.10182C196.947 8.58545 196.692 9.90911 196.183 11.0727C195.689 12.2218 194.925 13.1309 193.892 13.8C192.874 14.4545 191.609 14.7818 190.096 14.7818ZM190.532 13.3636C191.856 13.3636 192.816 12.8909 193.412 11.9455C194.023 10.9855 194.329 9.52363 194.329 7.56C194.329 5.98909 194.169 4.76002 193.849 3.87273C193.529 2.97093 193.07 2.34546 192.474 1.99637C191.892 1.64728 191.158 1.47274 190.27 1.47274C189.369 1.47274 188.627 1.61819 188.045 1.9091C187.463 2.20001 186.998 2.77456 186.649 3.63273C186.314 4.47638 186.147 5.72002 186.147 7.36363C186.147 9.50182 186.503 11.0364 187.216 11.9673C187.943 12.8982 189.049 13.3636 190.532 13.3636Z" fill="white"/>
<path d="M206.53 8.38909V7.36363H211.33V8.49818L210.37 8.73818V14.4545H209.432L208.777 13.8655H208.515C207.613 14.4473 206.472 14.7382 205.09 14.7382C200.886 14.7382 198.784 12.36 198.784 7.60363C198.784 6.1782 199.068 4.89092 199.635 3.74182C200.217 2.57819 201.039 1.6691 202.101 1.01455C203.177 0.345464 204.435 0.0109177 205.875 0.0109177C206.85 0.0109177 207.715 0.0836453 208.472 0.229101C209.228 0.360009 209.795 0.505465 210.174 0.665463V4.24363H208.952L208.363 1.84364C207.621 1.59637 206.726 1.47274 205.679 1.47274C204.137 1.47274 203.039 1.95274 202.384 2.91272C201.73 3.87273 201.403 5.35636 201.403 7.36363C201.403 9.42911 201.73 10.9418 202.384 11.9018C203.039 12.8618 204.123 13.3418 205.635 13.3418C206.203 13.3418 206.668 13.2982 207.032 13.2109C207.395 13.1091 207.774 12.9637 208.166 12.7745V8.78182L206.53 8.38909Z" fill="white"/>
<path d="M215.77 13.4073L217.537 13.0582V9.28364L213.26 1.64728L211.886 1.29819V0.316376H217.384V1.29819L215.813 1.64728V2.01819L218.824 7.71273H219.108L222.075 1.97456V1.64728L220.395 1.29819V0.316376H225.239V1.29819L223.864 1.6691L219.806 9.08727V13.0582L221.573 13.4073V14.4545H215.77V13.4073Z" fill="white"/>
</g>
<defs>
<clipPath id="clip0">
<rect width="225.273" height="18" fill="white"/>
</clipPath>
</defs>
</svg>
