<svg width="189" height="52" viewBox="0 0 189 52" fill="none" xmlns="http://www.w3.org/2000/svg">
<path d="M50.1731 16.6965C49.6935 13.3388 48.926 11.3242 47.487 8.82993C45.4724 5.2804 42.1147 2.78614 38.1815 1.63494C37.3181 1.34714 36.8384 1.2512 36.3588 1.15527C35.8791 1.05934 35.2076 1.05934 34.1523 0.963403C32.3296 0.86747 31.4662 0.963404 30.1231 1.15527C23.7915 2.21054 17.5558 5.5682 11.8958 10.9405C11.3202 11.4201 10.8405 11.8998 10.5527 12.2835C10.5527 12.2835 10.4568 12.3795 10.3608 12.4754C10.4568 12.5713 10.6486 12.6673 10.7446 12.8591L11.1283 13.2429L11.7998 12.5713C14.7738 9.69333 16.8843 7.96653 19.7623 6.23973C22.0647 4.89667 23.024 4.417 25.1346 3.5536C31.2743 1.2512 37.1262 1.44307 41.6351 4.32107C44.0334 5.856 46.3358 8.734 47.5829 11.612C49.7894 16.8883 49.7894 23.7955 47.6789 30.7986C46.4318 34.9238 44.609 38.7611 41.731 43.174C41.3473 43.6537 41.0595 44.1334 40.8676 44.5171C40.7717 44.709 40.6757 44.9008 40.5798 44.9968C40.5798 44.9968 40.6757 45.0927 40.7717 45.1886C40.8676 45.2846 40.9635 45.2846 41.0595 45.3805H41.1554C41.1554 45.3805 41.2514 45.3805 41.6351 45.0927C41.9229 44.709 42.4025 44.2293 42.9781 43.27C46.3358 38.0896 48.4464 33.197 49.5976 27.7288C50.0772 25.7142 50.0772 25.0426 50.2691 22.0687C50.4609 18.9989 50.4609 18.5192 50.1731 16.6965Z" fill="white"/>
<path d="M15.2534 26.6734C16.4046 28.0165 17.4598 29.2636 18.2273 30.223C18.611 30.7026 18.9948 31.0864 19.1866 31.3742C19.2826 31.4701 19.3785 31.662 19.4744 31.7579L19.5704 31.8538C19.6663 31.9498 19.7623 31.9498 19.8582 31.9498C20.0501 31.9498 20.3378 31.9498 20.7216 31.7579C21.7768 31.2782 22.4484 30.7986 22.8321 29.9352C23.3118 28.9758 23.2158 28.4962 23.1199 28.3043C23.1199 28.3043 23.1199 28.3043 23.024 28.2084C22.928 28.1124 22.7362 27.9206 22.5443 27.7287C22.0646 27.345 21.585 26.8653 21.0094 26.3856C20.7216 26.1938 20.4338 25.906 20.0501 25.5222C18.707 24.371 16.6924 22.6443 14.9656 21.2053C14.4859 20.8215 14.0063 20.3419 13.5266 19.9581C11.8957 18.6151 10.4567 17.3679 9.97706 16.9842C7.7706 15.1615 5.94786 13.6265 4.70073 12.5713C4.12513 12.0916 3.64547 11.6119 3.26173 11.3241C3.06987 11.2282 2.97393 11.0363 2.878 10.9404C2.878 10.9404 2.78206 10.8445 2.68613 10.7485C2.68613 10.7485 2.68613 10.7485 2.59019 10.6526C2.59019 10.6526 2.5902 10.6526 2.49426 10.5567C2.39833 10.4607 2.11053 10.2689 1.82273 10.077C1.34307 9.69326 0.671533 9.21359 0 8.73393C0.863399 9.78919 1.7268 10.9404 2.11053 11.3241C3.16579 12.2835 6.13973 15.833 15.2534 26.6734Z" fill="white"/>
<path d="M27.0533 16.4086C26.4777 16.4086 26.0939 16.3127 25.8061 16.4086C25.4224 16.4086 25.1346 16.5045 24.559 16.6964C22.4485 17.272 20.1461 18.711 18.6111 20.3419L18.8989 20.5337L19.3786 20.8215L19.5705 20.6297C21.2973 19.2866 22.8322 18.4232 24.3671 17.9435C25.8061 17.4639 27.2451 17.3679 28.3963 17.7517C30.0272 18.3273 31.1784 19.6703 31.8499 21.3971C32.5215 23.1239 32.7133 25.2345 32.4255 27.5369C31.9458 30.7986 30.5069 33.8685 28.2045 36.8424C26.3817 39.1448 24.4631 40.7756 22.1607 41.9268C21.681 42.2146 21.2973 42.4065 20.7217 42.5024C20.242 42.5984 19.6664 42.6943 18.803 42.7902C17.9396 42.8862 17.364 42.8862 16.9803 42.8862C16.5006 42.8862 16.1169 42.7902 15.7331 42.5984C13.7185 41.9268 11.9917 40.2 10.9365 37.8976C10.7446 37.418 10.5527 37.0342 10.4568 36.4586C10.3609 35.979 10.2649 35.2115 10.169 34.2522C9.8812 31.4701 10.0731 30.0311 10.8405 27.1531C10.9365 26.7694 11.0324 26.3857 11.1283 26.0979C11.1283 26.0019 11.1283 25.906 11.1283 25.906C11.0324 25.8101 10.7446 25.5223 10.5527 25.3304L10.3609 25.2345L10.169 25.906C9.0178 29.2637 8.73 32.2376 9.20967 35.3075C9.5934 37.5139 9.97714 38.6651 10.9365 40.2C12.7592 43.174 16.2128 44.613 19.6664 44.0374C23.12 43.3658 26.4777 41.0634 29.0679 37.8017C31.658 34.6359 33.4808 30.5108 33.6726 26.5775C33.8645 20.7256 31.0825 16.7923 27.0533 16.4086Z" fill="white"/>
<path d="M32.0416 9.50149C31.1782 9.30962 30.6026 9.30962 30.123 9.30962C29.6433 9.30962 29.0677 9.40555 28.1084 9.59742C24.9426 10.269 21.2971 12.1876 18.7069 14.49L18.8988 14.586L19.4744 15.0656L19.6662 14.9697C22.4483 13.051 25.1344 11.8039 27.5328 11.1324C29.9311 10.4608 32.2335 10.4608 34.1521 11.3242C36.7423 12.4754 38.4691 14.7778 39.4285 17.5599C40.3878 20.3419 40.4837 23.7955 39.7163 27.441C38.661 32.6214 36.1667 37.3221 32.1375 41.831C29.0677 45.3805 25.806 47.6829 21.9686 49.3138C21.1052 49.6975 20.4337 49.8894 19.6662 50.0813C18.8988 50.1772 17.9394 50.2731 16.5964 50.3691C15.2533 50.3691 14.294 50.465 13.5265 50.3691C12.759 50.2731 12.1834 50.0813 11.5119 49.7935C8.25017 48.4504 5.65998 45.4765 4.31691 41.831C4.02911 40.9676 3.83725 40.2961 3.74131 39.4327C3.64538 38.5693 3.54944 37.514 3.45351 35.8831C3.26164 31.4702 3.64538 29.0719 5.18031 24.563C5.37218 23.9874 5.56404 23.3159 5.65998 22.9321C5.65998 22.8362 5.65998 22.8362 5.75591 22.7403C5.56404 22.5484 5.27624 22.2606 4.98844 21.8769L4.79658 22.4525C2.59011 27.6329 1.82265 32.2377 2.30231 37.0343C2.68605 40.5839 3.16571 42.3107 4.50877 44.8049C7.09897 49.6016 12.2794 52.2877 17.5557 51.6162C22.928 50.9447 28.588 47.587 33.001 42.7903C37.4139 37.9937 40.5797 31.8539 41.4431 25.6183C42.3065 16.7924 38.2773 10.5568 32.0416 9.50149Z" fill="white"/>
<path d="M14.1022 28.3042C14.1981 28.4002 14.1981 28.4002 14.1022 28.3042C14.1981 28.4002 14.1022 28.4002 14.1022 28.3042Z" fill="white"/>
<path d="M29.6435 27.153C29.4516 25.1384 28.4923 23.6035 26.8614 22.836C26.5736 22.7401 26.3818 22.6442 26.094 22.5482C25.8062 22.5482 25.5184 22.5482 24.9428 22.5482C24.559 22.5482 24.1753 22.5482 23.8875 22.5482C23.5038 22.5482 23.3119 22.6442 23.216 22.6442C22.7363 22.7401 22.2566 23.0279 21.777 23.2198C21.777 23.2198 21.681 23.2198 21.681 23.3157C21.681 23.3157 21.777 23.4116 21.8729 23.5076C22.2566 23.8913 22.7363 24.275 23.3119 24.7547C25.0387 26.0978 25.5184 26.6734 25.8062 27.4408C26.2858 28.592 26.094 29.7432 25.3265 31.0863C24.9428 31.9497 24.3672 32.6212 23.5997 33.1968L27.6289 33.8684C29.1638 31.566 29.8354 29.1676 29.6435 27.153Z" fill="white"/>
<path d="M13.4307 32.7172C13.4307 33.7725 13.4307 34.3481 13.5266 34.7318C13.5266 35.1156 13.6225 35.3074 13.9103 35.7871C14.4859 37.1302 15.829 38.4732 17.0761 38.9529C18.6111 39.5285 20.6257 39.4326 22.5443 38.4732C24.463 37.6098 26.3817 35.979 27.8207 33.8684L23.7915 33.1969C22.9281 33.8684 21.7769 34.3481 20.6257 34.444C19.8582 34.54 19.2826 34.444 18.6111 34.0603C18.0355 33.6766 17.4599 33.101 16.7883 32.2376C16.6924 32.1416 16.5965 31.9498 16.5005 31.8538V31.9498C16.5965 32.5254 16.6924 33.005 16.8843 33.3888C17.4599 34.7318 18.707 35.5952 20.4338 35.7871C20.6257 35.7871 20.9135 35.883 21.0094 35.979C21.2013 36.0749 21.3931 36.1708 21.4891 36.3627C21.6809 36.5546 21.6809 36.8424 21.585 37.1302C21.585 37.322 21.3931 37.6098 21.2013 37.7058C21.1053 37.8017 21.0094 37.8976 20.8175 37.9936C20.6257 38.0895 20.4338 38.0895 20.3379 38.0895C20.0501 38.0895 19.6663 38.0895 18.9948 37.9936C17.5558 37.8017 16.4046 37.418 15.5412 36.7464C14.6778 36.0749 14.1022 35.1156 13.7185 33.9644C13.5266 33.3888 13.4307 32.5254 13.4307 31.7579C13.4307 31.2782 13.4307 30.7986 13.4307 30.3189C13.4307 30.8945 13.4307 31.4701 13.4307 32.7172Z" fill="white"/>
<path d="M30.5067 38.953C30.123 39.4327 29.8352 39.8164 29.7393 39.9123C29.7393 40.0083 30.6027 40.7757 30.6986 40.6798C30.8905 40.5839 31.8498 39.2408 31.8498 39.1449C31.8498 39.0489 31.6579 38.7611 31.4661 38.5693L31.0823 38.0896L30.5067 38.953Z" fill="white"/>
<path d="M36.1669 43.8454C35.7832 43.3657 35.4954 43.0779 35.3035 42.8861C35.2076 42.7901 35.2076 42.6942 35.1117 42.6942C35.0157 42.7901 34.8239 42.982 34.632 43.1739L34.1523 43.7495L35.5913 44.9966C38.2775 47.299 40.0043 48.738 41.0595 49.6014C40.388 48.738 39.6205 47.7787 38.7571 46.8193C37.7978 45.7641 36.9344 44.7088 36.1669 43.8454Z" fill="white"/>
<path d="M84.5171 26.8652C84.888 26.8652 85.1886 26.6505 85.1886 26.3856C85.1886 26.1206 84.888 25.9059 84.5171 25.9059C84.1462 25.9059 83.8456 26.1206 83.8456 26.3856C83.8456 26.6505 84.1462 26.8652 84.5171 26.8652Z" fill="white"/>
<path d="M77.802 35.0193C76.7467 35.0193 75.5955 34.5397 74.7321 34.2519C82.2149 29.1674 81.1596 17.8473 72.8134 14.01C70.1273 12.7628 66.6737 12.8588 63.8916 14.1059C61.2055 15.353 58.2316 18.6147 57.56 21.0131C56.3129 25.5219 57.56 30.4145 61.0136 33.3885C62.0689 34.2519 61.2055 33.9641 64.5632 35.5949C65.4266 36.0746 65.9062 36.1705 68.7842 36.1705C71.1826 37.5136 73.389 37.8973 73.8687 37.8973C74.3484 37.8973 75.9792 37.4177 77.5142 37.0339C81.0637 35.8827 81.2556 35.0193 77.802 35.0193ZM76.363 36.6502C73.7728 37.4177 72.9094 37.5136 69.168 35.4031C67.633 35.4031 66.7696 35.4031 65.5225 35.1153C60.7258 33.2925 57.9438 29.4552 58.0397 24.5626C58.0397 18.6148 62.6445 13.914 68.4964 13.914C69.8395 13.914 71.5663 14.2978 72.6216 14.7774C76.5548 16.6002 78.8572 20.2456 78.8572 24.6585C78.8572 29.0715 77.3223 32.0454 73.1972 34.06C72.7175 34.1559 72.9094 34.6356 76.267 35.7868L78.2816 36.0746L76.363 36.6502Z" fill="white"/>
<path d="M74.7319 20.4375C73.1011 15.8327 69.1678 13.3385 65.6183 14.8734C62.9321 16.0246 60.7257 21.1091 61.3013 25.2342C62.0687 30.5105 64.1793 33.8682 67.441 34.7316C70.7987 35.595 73.6767 33.8682 74.9238 30.0309C75.5953 27.9203 75.4994 22.644 74.7319 20.4375ZM71.9499 33.1967C70.6068 34.3479 67.6329 34.3479 66.002 33.1967C65.3305 32.717 64.1793 31.1821 63.5077 29.839C62.4525 27.7285 62.2606 26.8651 62.2606 23.8911C62.2606 19.9579 63.5077 16.7921 65.4264 15.7368C67.0573 14.8734 70.0312 15.3531 71.3743 16.6002C75.4035 20.3416 75.6913 29.9349 71.9499 33.1967Z" fill="white"/>
<path d="M105.239 14.2018C105.335 13.3384 105.143 13.3384 101.114 13.3384C97.2763 13.3384 96.8926 13.4344 96.8926 14.2018C96.8926 14.7774 97.2763 15.0652 98.0438 15.1612C99.5787 15.353 99.8665 16.6961 99.5787 23.6033C99.3868 29.3593 98.9072 30.7983 96.9885 32.2373C95.5495 33.2926 92.7674 33.3885 91.2325 32.3332C89.026 30.8942 88.5464 29.4552 88.5464 22.1643V15.449L89.6016 15.1612C90.2732 14.9693 90.6569 14.5856 90.6569 14.1059C90.6569 13.3384 90.1772 13.2425 85.9562 13.2425C81.5432 13.2425 81.2554 13.2425 81.4473 14.1059C81.5432 14.5856 81.927 14.9693 82.5026 15.0652C83.366 15.1612 83.4619 15.449 83.6538 22.1643C83.9416 31.278 84.709 33.2926 88.5464 35.0194C92.5756 36.8421 98.2356 35.595 100.346 32.4292C101.881 30.2227 102.169 28.304 102.169 21.9724C102.169 18.8066 102.361 15.9286 102.553 15.6408C102.744 15.353 103.32 15.0652 103.896 14.9693C104.663 15.0652 105.143 14.7774 105.239 14.2018ZM103.704 14.2978C101.785 14.5856 101.401 15.8327 101.401 22.1643C101.401 28.6878 101.018 30.6064 99.3868 32.5251C97.756 34.4438 96.0292 35.2112 92.9593 35.2112C89.122 35.2112 86.5318 33.6763 85.3806 30.6064C85.0928 29.839 84.709 26.0976 84.6131 22.0684C84.4212 14.9693 84.4212 14.8734 83.366 14.4896C82.6944 14.2978 83.8456 14.1059 86.3399 14.1059C88.5464 14.1059 89.8894 14.2018 89.4098 14.2018C87.7789 14.4896 87.4911 15.5449 87.4911 21.0131C87.4911 27.4406 87.9708 30.1268 89.6016 32.0454C90.6569 33.3885 91.0406 33.4844 93.343 33.6763C95.3576 33.7722 96.221 33.6763 97.2763 33.0048C99.4828 31.5658 100.25 29.4552 100.346 23.5074C100.538 16.6961 100.346 15.2571 98.7153 14.5856C97.5641 14.1059 97.8519 14.1059 101.018 14.1059C103.032 14.2018 104.183 14.2018 103.704 14.2978Z" fill="white"/>
<path d="M126.056 34.0603C125.001 33.5806 124.521 32.7172 121.356 24.5629C116.655 12.5712 116.463 12.2834 115.12 13.9143C114.736 14.3939 113.489 17.176 112.242 20.3418C107.541 31.8538 106.582 33.8684 105.431 34.1562C104.759 34.3481 104.375 34.7318 104.375 35.3074C104.375 36.0749 104.663 36.1708 108.309 36.1708C111.858 36.1708 112.242 36.0749 112.242 35.3074C112.242 34.7318 111.762 34.444 110.899 34.2521C109.46 33.9643 109.46 33.9643 110.803 30.2229L111.475 28.4002H114.832H118.19L119.149 30.9904C120.109 33.6765 120.013 34.5399 118.67 34.5399C118.19 34.5399 117.806 34.8277 117.806 35.4033C117.806 36.2667 118.094 36.2667 122.603 36.2667C126.92 36.2667 127.399 36.1708 127.399 35.4993C127.399 34.8277 126.824 34.3481 126.056 34.0603ZM122.603 35.1155C119.917 35.1155 119.149 35.0196 119.917 34.7318C121.068 34.2521 121.068 33.4847 119.821 30.2229L118.861 27.6327L114.928 27.5368L110.995 27.4409L110.036 29.7433C108.692 33.1009 108.692 34.0603 110.036 34.7318C110.995 35.2115 110.803 35.3074 108.117 35.2115C106.102 35.2115 105.431 35.1155 105.91 34.8277C106.39 34.6359 107.062 34.2521 107.253 33.8684C107.637 33.3887 110.899 25.81 115.504 14.5858C115.6 14.298 115.887 14.1062 115.983 14.1062C116.079 14.1062 117.998 18.615 120.109 24.0832C123.178 32.1416 124.234 34.1562 125.097 34.6359C126.152 35.1155 125.96 35.1155 122.603 35.1155Z" fill="white"/>
<path d="M114.448 18.8066C114.161 19.4781 113.393 21.3968 112.722 23.0277C112.05 24.6585 111.57 26.0975 111.666 26.2894C112.05 26.6731 117.806 26.5772 117.998 26.1935C118.094 26.0016 117.422 23.987 116.559 21.7805C114.928 17.8473 114.832 17.7513 114.448 18.8066ZM114.736 25.6179C113.489 25.6179 112.626 25.426 112.722 25.2341C112.817 25.0423 113.201 23.8911 113.681 22.6439C114.161 21.3968 114.64 20.4375 114.832 20.4375C114.928 20.4375 115.504 21.4927 116.079 22.8358C116.559 24.1789 116.943 25.3301 116.943 25.426C116.943 25.5219 115.983 25.6179 114.736 25.6179Z" fill="white"/>
<path d="M142.749 28.6879C142.365 26.8652 141.022 25.4262 137.568 23.1238C133.443 20.3417 132.867 19.6702 133.059 17.6556C133.155 16.3125 133.443 15.9288 134.402 15.545C136.321 14.8735 137.856 15.641 139.007 17.9434C139.679 19.2864 140.254 20.0539 140.83 20.0539C141.501 20.0539 141.693 19.6702 141.693 17.9434C141.693 14.5857 141.406 14.106 139.295 13.5304C136.609 12.8589 133.923 12.9548 132.388 13.7223C129.318 15.3532 127.879 18.0393 128.742 20.8214C129.318 22.74 130.085 23.6034 133.923 26.1936C137.76 28.7838 138.24 29.2635 138.24 31.0862C138.24 32.6212 137.952 33.1968 136.609 33.8683C134.69 34.9236 131.333 33.1968 130.661 30.7025C130.181 29.2635 129.606 28.7838 128.838 29.1676C128.167 29.5513 128.071 29.935 128.455 32.2374C128.646 33.6764 128.934 35.1154 129.126 35.3073C129.318 35.4992 130.853 35.787 132.58 36.1707C134.978 36.5544 136.129 36.5544 137.472 36.1707C140.83 35.0195 143.42 31.5659 142.749 28.6879ZM138.623 34.6358C136.513 35.691 134.978 35.8829 131.716 35.1154C129.414 34.6358 129.03 34.1561 129.03 31.0862V29.3594L129.989 31.2781C131.237 33.7724 132.867 34.9236 135.074 34.9236C137.376 34.8276 138.911 33.3886 138.911 31.2781C138.911 29.1676 137.856 27.8245 134.69 25.9058C128.263 21.9726 127.303 17.8474 132.196 14.7776C133.251 14.106 134.019 13.9142 136.705 14.202C138.623 14.2979 140.062 14.6816 140.254 14.9694C140.446 15.2572 140.638 16.4084 140.638 17.4637V19.3824L139.775 17.7515C138.048 14.5857 134.882 13.3386 132.963 15.2572C131.812 16.3125 131.716 18.7108 132.676 20.2458C133.059 20.8214 134.69 22.1644 136.225 23.2197C137.856 24.275 139.679 25.714 140.254 26.2896C143.036 28.8798 142.173 32.813 138.623 34.6358Z" fill="white"/>
<path d="M164.813 34.0602C163.95 33.8683 163.279 32.5252 159.729 23.6034C157.523 18.0393 155.508 13.3386 155.22 13.2426C155.028 13.1467 154.453 13.3386 154.165 13.6264C153.781 13.9142 151.958 17.8474 150.136 22.4522C145.819 33.0049 145.435 33.8683 144.092 34.1561C143.42 34.348 143.037 34.7317 143.037 35.2114C143.037 35.9788 143.42 36.0748 146.874 36.0748C149.08 36.0748 150.903 35.8829 150.999 35.691C151.287 35.2114 150.711 34.4439 149.56 34.0602C148.409 33.6764 148.505 32.813 149.752 29.8391L150.423 28.2082L153.781 28.3042L157.139 28.4001L158.098 31.0862L159.057 33.7724L157.714 34.252C156.947 34.5398 156.467 34.9236 156.563 35.2114C156.659 35.5951 158.098 35.787 161.36 35.8829C165.773 35.9788 165.965 35.9788 165.965 35.1154C165.869 34.6358 165.485 34.252 164.813 34.0602ZM161.552 35.1154C158.194 35.1154 158.002 35.1154 158.866 34.5398L159.825 33.8683L158.674 30.6066L157.523 27.3448H153.685H149.848L148.984 29.3594C148.505 30.4147 148.025 32.0456 147.833 32.813C147.641 34.1561 147.737 34.348 148.601 34.7317C149.464 35.1154 149.08 35.2114 146.778 35.2114C144.476 35.2114 144.092 35.1154 144.955 34.7317C146.106 34.252 146.682 33.0049 150.807 23.0278C154.357 14.2979 154.549 13.8182 155.028 14.2979C155.22 14.4898 156.947 18.9027 158.962 23.9872C160.976 29.0716 162.799 33.5805 162.991 33.8683C163.183 34.1561 163.854 34.6358 164.334 34.7317C164.909 35.0195 163.95 35.1154 161.552 35.1154Z" fill="white"/>
<path d="M153.589 17.8476C153.493 17.8476 152.726 19.6703 151.862 21.8768C150.999 24.0833 150.232 26.0019 150.232 26.1938C150.232 26.3856 151.671 26.4816 153.493 26.4816C155.316 26.4816 156.755 26.2897 156.755 26.0019C156.755 25.6182 153.781 17.8476 153.589 17.8476ZM153.685 20.2459C153.685 20.3419 154.261 21.589 154.836 23.028L155.892 25.7141H153.589H151.191L152.342 22.932C153.014 21.3012 153.589 20.15 153.685 20.2459Z" fill="white"/>
<path d="M188.317 34.3477C186.878 34.3477 184.671 32.6209 182.753 30.0307C179.203 25.2341 179.299 25.5219 180.93 24.1788C182.849 22.452 183.712 20.7252 183.424 18.6147C183.137 16.7919 181.602 14.7773 179.683 14.0099C178.148 13.4343 166.732 13.1465 166.54 13.7221C166.156 14.5855 166.732 15.257 167.787 15.257H168.842L168.747 24.6585L168.651 34.0599L167.595 34.3477C167.02 34.4437 166.54 34.8274 166.54 35.2111C166.54 35.6908 167.403 35.8827 171.337 35.8827C175.27 35.8827 176.133 35.7867 176.133 35.2111C176.133 34.8274 175.654 34.4437 175.078 34.3477C174.023 34.0599 174.023 33.964 173.831 30.1267C173.735 27.8243 173.831 26.0975 174.119 26.0975C174.311 26.0975 175.27 27.1527 176.133 28.3039C181.506 35.8827 181.697 35.9786 186.014 35.9786C188.509 35.9786 188.797 35.8827 188.797 35.1152C188.797 34.7315 188.605 34.3477 188.317 34.3477ZM181.985 34.5396C181.506 34.1559 179.683 31.9494 177.956 29.647C175.462 26.1934 174.598 25.33 173.831 25.33C172.776 25.33 172.776 25.33 172.776 29.8389C172.776 33.6762 172.872 34.4437 173.543 34.7315C174.119 35.1152 173.543 35.2111 171.241 35.2111C168.938 35.2111 168.363 35.1152 169.034 34.7315C169.706 34.3477 169.802 33.3884 169.802 24.8503C169.802 14.9692 169.802 14.6814 167.883 14.2977C167.403 14.2017 169.706 14.2017 172.872 14.2017C177.476 14.2017 179.011 14.3936 180.067 14.9692C184.096 17.0797 183.424 22.5479 179.011 24.3707C178.052 24.7544 178.148 24.8503 180.738 28.4958C183.808 32.7169 185.919 34.7315 187.166 34.7315C187.645 34.7315 188.029 34.9233 188.029 35.1152C187.933 35.7867 183.137 35.2111 181.985 34.5396Z" fill="white"/>
<path d="M179.395 17.8473C178.628 15.449 175.462 13.8181 173.639 14.8734C172.968 15.2571 172.872 16.0246 172.872 20.0538V24.8505H174.694C178.34 24.7545 180.45 21.6847 179.395 17.8473ZM175.078 23.8911H173.639V19.5741C173.639 14.7775 173.735 14.6815 176.421 15.6409C177.86 16.1205 179.011 18.7107 178.628 20.5335C178.34 22.5481 176.805 23.8911 175.078 23.8911Z" fill="white"/>
<path d="M106.678 44.9007C107.049 44.9007 107.349 43.4403 107.349 41.6389C107.349 39.8375 107.049 38.3772 106.678 38.3772C106.307 38.3772 106.006 39.8375 106.006 41.6389C106.006 43.4403 106.307 44.9007 106.678 44.9007Z" fill="white"/>
<path d="M61.8769 42.0227C60.7257 41.6389 60.5338 41.4471 61.0135 41.2552C61.4931 41.1593 62.0687 41.0633 62.3565 41.1593C62.7403 41.2552 63.124 41.0633 63.2199 40.8715C63.3159 40.3918 61.1094 40.104 60.246 40.4877C59.9582 40.5837 59.6704 41.2552 59.6704 41.8308C59.6704 42.6942 59.9582 42.982 61.0135 43.1739C62.7403 43.5576 62.7403 44.421 61.0135 44.1332C60.1501 44.0373 59.7663 44.1332 59.8623 44.421C60.0541 44.9966 61.2053 45.2844 62.5484 44.9007C64.2752 44.3251 63.7955 42.6942 61.8769 42.0227Z" fill="white"/>
<path d="M70.0312 40.6798C69.1678 41.1594 68.9759 43.6537 69.7434 44.4212C70.7027 45.3805 72.6214 44.9968 73.3888 43.8456C74.0604 42.7903 74.0604 42.5984 73.4848 41.5432C72.8132 40.296 71.1824 39.9123 70.0312 40.6798ZM71.4702 43.9415C70.223 43.6537 70.319 40.9676 71.5661 40.9676C71.9498 40.9676 72.3336 41.3513 72.4295 41.831C72.8132 42.9822 72.2376 44.1334 71.4702 43.9415Z" fill="white"/>
<path d="M82.2147 41.0634C82.6944 41.0634 83.0781 40.8715 83.0781 40.5837C83.0781 40.0081 81.3513 40.1041 80.392 40.5837C79.5286 41.0634 79.3367 43.5577 80.1042 44.3251C80.6798 44.9007 83.0781 44.9967 83.0781 44.4211C83.0781 44.2292 82.5985 43.9414 82.2147 43.8455C80.8717 43.6536 80.2001 42.5024 80.8717 41.639C81.2554 41.3512 81.831 41.0634 82.2147 41.0634Z" fill="white"/>
<path d="M89.3137 44.9005C89.6846 44.9005 89.9853 43.8267 89.9853 42.5022C89.9853 41.1776 89.6846 40.1038 89.3137 40.1038C88.9429 40.1038 88.6422 41.1776 88.6422 42.5022C88.6422 43.8267 88.9429 44.9005 89.3137 44.9005Z" fill="white"/>
<path d="M96.317 40.4878C95.6455 41.0634 96.0292 41.4471 97.0845 41.2552C97.6601 41.1593 98.2357 41.2552 98.4275 41.4471C98.5235 41.639 98.0438 41.9268 97.3723 42.1186C94.6861 42.5983 95.4536 44.9966 98.2357 44.8048C99.9625 44.8048 99.9625 44.7088 99.9625 42.982C99.9625 42.0227 99.7706 40.9674 99.4828 40.6796C98.9072 40.104 96.7967 40.0081 96.317 40.4878ZM97.756 44.0373C96.8926 44.0373 96.6048 43.5576 97.1804 43.078C97.6601 42.5024 98.6194 42.7902 98.6194 43.4617C98.6194 43.7495 98.2357 44.0373 97.756 44.0373Z" fill="white"/>
<path d="M126.536 40.3919H123.178H119.821V42.6943C119.821 44.4211 120.012 44.9967 120.396 44.9967C120.78 44.9967 121.068 44.4211 121.164 43.174C121.26 41.9268 121.547 41.3512 121.931 41.3512C122.411 41.3512 122.603 41.9268 122.699 43.174C122.794 44.4211 123.082 44.9967 123.466 44.9967C123.85 44.9967 124.138 44.4211 124.233 43.174C124.329 41.9268 124.617 41.3512 125.001 41.3512C125.385 41.3512 125.672 41.9268 125.768 43.174C125.864 44.2292 126.152 44.9967 126.344 44.9967C126.632 44.9967 126.728 44.0374 126.632 42.6943L126.536 40.3919Z" fill="white"/>
<path d="M133.347 40.6795C132.484 41.5429 132.676 43.9412 133.635 44.5168C134.69 45.0924 136.705 45.0924 136.705 44.5168C136.705 44.229 136.225 44.0372 135.65 44.0372C134.019 44.0372 133.827 43.2697 135.458 43.0778C137.089 42.9819 137.568 41.9266 136.417 40.8714C135.746 40.008 134.115 39.912 133.347 40.6795ZM135.074 42.3104C134.211 42.3104 133.923 41.8307 134.498 41.2551C134.882 40.8714 135.65 41.1592 135.842 41.7348C135.842 42.1185 135.554 42.3104 135.074 42.3104Z" fill="white"/>
<path d="M144.955 42.0227C143.804 41.6389 143.612 41.4471 144.092 41.2552C144.572 41.1593 145.147 41.0633 145.435 41.1593C145.819 41.2552 146.202 41.0633 146.298 40.8715C146.394 40.3918 144.188 40.104 143.324 40.4877C143.037 40.5837 142.749 41.2552 142.749 41.8308C142.749 42.6942 143.037 42.982 144.092 43.1739C145.819 43.5576 145.819 44.421 144.092 44.1332C143.228 44.0373 142.845 44.1332 142.941 44.421C143.132 44.9966 144.284 45.2844 145.627 44.9007C147.354 44.3251 146.97 42.6942 144.955 42.0227Z" fill="white"/>
<path d="M154.452 42.0227C153.301 41.6389 153.109 41.4471 153.589 41.2552C154.069 41.1593 154.644 41.0633 154.932 41.1593C155.316 41.2552 155.7 41.0633 155.795 40.8715C155.891 40.3918 153.685 40.104 152.822 40.4877C152.534 40.5837 152.246 41.2552 152.246 41.8308C152.246 42.6942 152.534 42.982 153.589 43.1739C155.316 43.5576 155.316 44.421 153.589 44.1332C152.726 44.0373 152.342 44.1332 152.438 44.421C152.63 44.9966 153.781 45.2844 155.124 44.9007C156.851 44.3251 156.467 42.6942 154.452 42.0227Z" fill="white"/>
<path d="M165.101 40.3917C164.046 40.0079 162.415 40.1039 162.127 40.5835C161.84 41.0632 162.127 41.1591 163.566 41.0632C165.005 40.9673 164.718 41.8307 163.183 42.1185C162.031 42.3103 161.84 42.5981 162.031 43.5575C162.127 44.6127 162.319 44.8046 164.046 44.8046L165.869 44.9005V42.79C165.773 41.2551 165.581 40.5835 165.101 40.3917ZM164.43 43.8453C163.758 44.229 162.607 43.7493 162.895 43.1737C163.279 42.5981 164.238 42.5981 164.622 43.1737C164.813 43.3656 164.718 43.7493 164.43 43.8453Z" fill="white"/>
<path d="M172.488 40.7754C172.008 41.1592 171.721 41.7348 171.913 42.79C172.008 44.1331 172.296 44.4209 173.543 44.8046C174.79 45.1884 174.886 45.3802 174.311 45.5721C173.831 45.764 173.256 45.764 172.872 45.5721C172.488 45.4762 172.2 45.5721 172.2 45.9558C172.2 46.7233 174.023 46.8192 175.27 46.1477C175.942 45.764 176.134 45.1884 176.134 42.886V40.1998H174.695C173.927 40.1998 172.968 40.3917 172.488 40.7754ZM174.023 43.6534C173.447 43.6534 173.16 43.3656 173.16 42.6941C173.16 41.5429 173.447 41.0632 174.311 41.0632C174.695 41.0632 174.886 41.5429 174.886 42.4063C174.886 43.3656 174.695 43.6534 174.023 43.6534Z" fill="white"/>
<path d="M184.48 43.174C185.823 43.174 186.111 43.0781 186.111 42.2147C186.111 40.0082 183.616 39.4326 182.369 41.3513C181.698 42.4065 181.698 42.5984 182.273 43.6537C182.753 44.5171 183.328 44.8049 184.48 44.9008C185.343 44.9967 186.111 44.9008 186.111 44.613C186.111 44.3252 185.631 44.1333 185.151 44.1333C184.576 44.1333 183.808 43.9415 183.52 43.6537C183.041 43.3659 183.328 43.174 184.48 43.174ZM183.328 41.3513C183.808 40.7757 184.767 41.0635 184.767 41.735C184.767 42.1187 184.384 42.4065 183.904 42.4065C183.041 42.3106 182.849 41.8309 183.328 41.3513Z" fill="white"/>
</svg>
