<?xml version="1.0" encoding="UTF-8" standalone="no"?>
<!DOCTYPE svg PUBLIC "-//W3C//DTD SVG 1.1//EN" "http://www.w3.org/Graphics/SVG/1.1/DTD/svg11.dtd">
<svg version="1.1" xmlns="http://www.w3.org/2000/svg" xmlns:xlink="http://www.w3.org/1999/xlink" preserveAspectRatio="xMidYMid meet" viewBox="0 0 640 640" width="640" height="640"><defs><path d="M431.32 379.83C418.44 375.39 403.83 378.81 395.37 387.44C390.14 391.39 348.31 422.98 343.08 426.93C283.08 394.91 244.68 356.53 213.1 296.97C216.94 291.87 247.68 251.02 251.52 245.92C261.19 236.25 264.66 222.09 260.51 208.83C251.74 182.28 247.28 154.43 247.28 126.07C247.28 106.02 230.96 89.71 210.91 89.71C202.43 89.71 134.55 89.71 126.07 89.71C106.02 89.71 89.71 106.02 89.71 126.07C89.71 359.97 280.03 550.29 513.93 550.29C533.98 550.29 550.29 533.98 550.29 513.93C550.29 505.47 550.29 437.79 550.29 429.33C550.29 409.28 533.98 392.97 513.93 392.97C485.52 392.97 457.69 388.53 431.32 379.83Z" id="bJ2dnLSvs"></path></defs><g><g><g><use xlink:href="#bJ2dnLSvs" opacity="1" fill="#000000" fill-opacity="1"></use><g><use xlink:href="#bJ2dnLSvs" opacity="1" fill-opacity="0" stroke="#000000" stroke-width="1" stroke-opacity="0"></use></g></g></g></g></svg>