<?xml version="1.0" encoding="UTF-8" standalone="no"?>
<!DOCTYPE svg PUBLIC "-//W3C//DTD SVG 1.1//EN" "http://www.w3.org/Graphics/SVG/1.1/DTD/svg11.dtd">
<svg version="1.1" xmlns="http://www.w3.org/2000/svg" xmlns:xlink="http://www.w3.org/1999/xlink" preserveAspectRatio="xMidYMid meet" viewBox="0 0 640 640" width="640" height="640"><defs><path d="M515.96 325.45C505.39 325.45 496.83 334.01 496.83 344.57C496.83 438.12 420.73 514.23 327.17 514.23C233.62 514.23 157.52 438.12 157.52 344.57C157.52 334.01 148.96 325.45 138.39 325.45C127.83 325.45 119.27 334.01 119.27 344.57C119.27 452.77 202.34 541.9 308.05 551.59C308.05 555.02 308.05 572.18 308.05 603.08C265.46 603.08 241.8 603.08 237.07 603.08C226.51 603.08 217.94 611.64 217.94 622.2C217.94 632.77 226.51 641.33 237.07 641.33C255.09 641.33 399.26 641.33 417.28 641.33C427.84 641.33 436.4 632.77 436.4 622.2C436.4 611.64 427.84 603.08 417.28 603.08C412.55 603.08 388.89 603.08 346.3 603.08C346.3 572.18 346.3 555.02 346.3 551.59C452.01 541.91 535.08 452.77 535.08 344.57C535.08 334.01 526.52 325.45 515.96 325.45Z" id="dh1e54y3I"></path><path d="M449.64 344.57C449.64 322.36 449.64 144.67 449.64 122.46C449.64 54.94 394.7 0 327.17 0C259.65 0 204.71 54.94 204.71 122.46C204.71 144.67 204.71 322.36 204.71 344.57C204.71 412.09 259.65 467.03 327.17 467.03C394.7 467.03 449.64 412.09 449.64 344.57ZM242.96 122.46C242.96 76.03 280.74 38.25 327.17 38.25C373.61 38.25 411.39 76.03 411.39 122.46C411.39 144.67 411.39 322.36 411.39 344.57C411.39 391 373.61 428.78 327.17 428.78C280.74 428.78 242.96 391 242.96 344.57C242.96 300.15 242.96 166.88 242.96 122.46Z" id="b9GnsueEFx"></path><path d="M74.7 92.15C82.59 84.85 94.91 85.33 102.22 93.22C195.27 193.76 461.2 481.1 554.26 581.65C561.56 589.54 561.08 601.86 553.19 609.16C550.33 611.81 556.05 606.52 553.19 609.16C545.3 616.47 532.98 615.99 525.68 608.1C432.62 507.55 166.69 220.21 73.64 119.67C66.33 111.78 66.81 99.46 74.7 92.15C77.56 89.51 71.84 94.8 74.7 92.15Z" id="d9c93apmg"></path></defs><g><g><g><use xlink:href="#dh1e54y3I" opacity="1" fill="#000000" fill-opacity="1"></use><g><use xlink:href="#dh1e54y3I" opacity="1" fill-opacity="0" stroke="#000000" stroke-width="1" stroke-opacity="0"></use></g></g><g><use xlink:href="#b9GnsueEFx" opacity="1" fill="#000000" fill-opacity="1"></use><g><use xlink:href="#b9GnsueEFx" opacity="1" fill-opacity="0" stroke="#000000" stroke-width="1" stroke-opacity="0"></use></g></g><g><use xlink:href="#d9c93apmg" opacity="1" fill="#000000" fill-opacity="1"></use></g></g></g></svg>