<svg width="28" height="28" viewBox="0 0 28 28" fill="none" xmlns="http://www.w3.org/2000/svg">
<path d="M16.3333 3.81387C16.3333 2.99604 15.6706 2.33337 14.8528 2.33337H13.1483C12.3293 2.33337 11.6666 2.99604 11.6666 3.81387C11.6666 4.48821 11.2046 5.06687 10.5758 5.31421C10.4766 5.35387 10.3775 5.39587 10.2806 5.43787C9.66115 5.70621 8.92498 5.62454 8.44665 5.14737C8.16903 4.86995 7.79262 4.71412 7.40015 4.71412C7.00768 4.71412 6.63126 4.86995 6.35365 5.14737L5.14731 6.35371C4.86989 6.63133 4.71406 7.00774 4.71406 7.40021C4.71406 7.79268 4.86989 8.16909 5.14731 8.44671V8.44671C5.62565 8.92504 5.70731 9.66004 5.43665 10.2807C5.39412 10.3784 5.35328 10.4768 5.31415 10.5759C5.06681 11.2047 4.48815 11.6667 3.81381 11.6667C2.99598 11.6667 2.33331 12.3294 2.33331 13.1472V14.8529C2.33331 15.6707 2.99598 16.3334 3.81381 16.3334C4.48815 16.3334 5.06681 16.7954 5.31415 17.4242C5.35381 17.5234 5.39581 17.6225 5.43665 17.7194C5.70615 18.3389 5.62448 19.075 5.14731 19.5534C4.86989 19.831 4.71406 20.2074 4.71406 20.5999C4.71406 20.9923 4.86989 21.3688 5.14731 21.6464L6.35365 22.8527C6.63126 23.1301 7.00768 23.286 7.40015 23.286C7.79262 23.286 8.16903 23.1301 8.44665 22.8527C8.92498 22.3744 9.65998 22.2927 10.2806 22.5622C10.3775 22.6054 10.4766 22.6462 10.5758 22.6859C11.2046 22.9332 11.6666 23.5119 11.6666 24.1862C11.6666 25.004 12.3293 25.6667 13.1471 25.6667H14.8528C15.6706 25.6667 16.3333 25.004 16.3333 24.1862C16.3333 23.5119 16.7953 22.9332 17.4241 22.6847C17.5233 22.6462 17.6225 22.6054 17.7193 22.5634C18.3388 22.2927 19.075 22.3755 19.5521 22.8527C19.6896 22.9902 19.8529 23.0994 20.0325 23.1738C20.2122 23.2482 20.4048 23.2865 20.5992 23.2865C20.7937 23.2865 20.9863 23.2482 21.1659 23.1738C21.3456 23.0994 21.5088 22.9902 21.6463 22.8527L22.8526 21.6464C23.1301 21.3688 23.2859 20.9923 23.2859 20.5999C23.2859 20.2074 23.1301 19.831 22.8526 19.5534V19.5534C22.3743 19.075 22.2926 18.34 22.5621 17.7194C22.6053 17.6225 22.6461 17.5234 22.6858 17.4242C22.9331 16.7954 23.5118 16.3334 24.1861 16.3334C25.004 16.3334 25.6666 15.6707 25.6666 14.8529V13.1484C25.6666 12.3305 25.004 11.6679 24.1861 11.6679C23.5118 11.6679 22.9331 11.2059 22.6846 10.577C22.6456 10.4779 22.6047 10.3795 22.5621 10.2819C22.2938 9.66237 22.3755 8.92621 22.8526 8.44787C23.1301 8.17026 23.2859 7.79385 23.2859 7.40137C23.2859 7.0089 23.1301 6.63249 22.8526 6.35487L21.6463 5.14854C21.3687 4.87112 20.9923 4.71528 20.5998 4.71528C20.2073 4.71528 19.8309 4.87112 19.5533 5.14854V5.14854C19.075 5.62687 18.34 5.70854 17.7193 5.43904C17.6216 5.39612 17.5232 5.35489 17.4241 5.31537C16.7953 5.06687 16.3333 4.48821 16.3333 3.81504V3.81387Z" stroke="url(#paint0_linear)" stroke-width="2.16667"/>
<path d="M18.6666 14C18.6666 15.2377 18.175 16.4247 17.2998 17.2999C16.4246 18.175 15.2377 18.6667 14 18.6667C12.7623 18.6667 11.5753 18.175 10.7001 17.2999C9.82498 16.4247 9.33331 15.2377 9.33331 14C9.33331 12.7624 9.82498 11.5754 10.7001 10.7002C11.5753 9.82504 12.7623 9.33337 14 9.33337C15.2377 9.33337 16.4246 9.82504 17.2998 10.7002C18.175 11.5754 18.6666 12.7624 18.6666 14V14Z" stroke="url(#paint1_linear)" stroke-width="2.16667"/>
<defs>
<linearGradient id="paint0_linear" x1="25.6666" y1="19.6" x2="2.33331" y2="2.33337" gradientUnits="userSpaceOnUse">
<stop offset="0.411864" stop-color="#8743FF"/>
<stop offset="0.970537" stop-color="#4136F1"/>
</linearGradient>
<linearGradient id="paint1_linear" x1="18.6666" y1="16.24" x2="9.33331" y2="9.33337" gradientUnits="userSpaceOnUse">
<stop offset="0.411864" stop-color="#8743FF"/>
<stop offset="0.970537" stop-color="#4136F1"/>
</linearGradient>
</defs>
</svg>
