<svg id="bold" enable-background="new 0 0 24 24" height="512" viewBox="0 0 24 24" width="512" xmlns="http://www.w3.org/2000/svg"><path d="m22 8c-.465 0-.888.166-1.228.434l-3.801-2.145c.042-.289.035-.309.002-.555l3.799-2.166c.34.266.763.432 1.228.432 1.103 0 2-.897 2-2s-.897-2-2-2c-1.159 0-2.143 1.006-1.973 2.266l-3.8 2.166c-.34-.266-.762-.432-1.227-.432-1.103 0-2 .897-2 2s.897 2 2 2c.456 0 .873-.16 1.21-.418l3.817 2.154c-.169 1.266.821 2.264 1.973 2.264 1.103 0 2-.897 2-2s-.897-2-2-2z"/><path d="m19 17v-4.37c-.42-.47-.72-1.04-.87-1.67l-1.13-.64v6.68h-13v-9h7.54c-.34-.59-.54-1.27-.54-2s.2-1.41.54-2h-10.54c-.55 0-1 .45-1 1v2c0 .55.45 1 1 1h1v9c-.552 0-1 .448-1 1s.448 1 1 1h6.844l-2.634 3.386c-.339.436-.26 1.064.176 1.403.434.337 1.063.26 1.403-.176l2.71-3.485 2.71 3.485c.339.435.968.514 1.403.176.436-.339.515-.968.176-1.403l-2.632-3.386h6.844c.552 0 1-.448 1-1s-.448-1-1-1z"/></svg>